<svg id="Calque_1" data-name="Calque 1" xmlns="http://www.w3.org/2000/svg" xmlns:xlink="http://www.w3.org/1999/xlink" viewBox="0 0 153 182.43"><defs><linearGradient id="Dégradé_sans_nom_9" x1="575.17" y1="728.79" x2="575.17" y2="912.64" gradientUnits="userSpaceOnUse"><stop offset="0" stop-color="#ef605f"/><stop offset="1" stop-color="#e03a37"/></linearGradient><linearGradient id="Dégradé_sans_nom_9-2" x1="574.69" y1="728.73" x2="574.69" y2="912.57" xlink:href="#Dégradé_sans_nom_9"/></defs><title>RDBIRD_avatar</title><path d="M556.31,728.79H509.68a11,11,0,0,0-11,11v10.82c0,14.69,14.15,26.26,23.38,32,14.47,9.06,38.17,8.46,53.18,18.14s15.25,23,15.25,23S603.78,830.59,606,841s-8.71,13.07-8.71,13.07,1.21-3.15-4.84-7.5c-16-9.44-41.39-11.86-63.17-1-9.88,4.94-23.42,17.07-28.82,27.15a15.27,15.27,0,0,0-1.75,7.23v20.24a11,11,0,0,0,11,11h46.63c55.95,0,95.35-36.24,95.35-91.22C651.67,763.09,610.56,728.79,556.31,728.79Z" transform="translate(-498.66 -728.79)" fill="url(#Dégradé_sans_nom_9)"/><path d="M569.66,812.92s6.29,6.54,9.44,6.05S572.8,812.92,569.66,812.92Z" transform="translate(-498.66 -728.79)" fill="url(#Dégradé_sans_nom_9-2)"/></svg>