<svg id="Calque_1" data-name="Calque 1" xmlns="http://www.w3.org/2000/svg" xmlns:xlink="http://www.w3.org/1999/xlink" viewBox="0 0 687.67 148.4"><defs><linearGradient id="Dégradé_sans_nom_9" x1="734.48" y1="464.41" x2="734.48" y2="613.86" gradientUnits="userSpaceOnUse"><stop offset="0" stop-color="#ef605f"/><stop offset="1" stop-color="#e03a37"/></linearGradient><linearGradient id="Dégradé_sans_nom_9-2" x1="734.09" y1="464.36" x2="734.09" y2="613.81" xlink:href="#Dégradé_sans_nom_9"/></defs><title>RDBIRD_logo</title><path d="M547.33,477.28a12.77,12.77,0,0,1,12.77-12.77h38.84c31.84,0,57.15,23.73,57.15,56.75a59.07,59.07,0,0,1-21.85,46.17,3.53,3.53,0,0,0-.83,4.58c3.08,5.13,8.28,13.94,21.34,35.2a3.55,3.55,0,0,1-3,5.4H623.07a3.55,3.55,0,0,1-3-1.68L602,581.67a3.55,3.55,0,0,0-3-1.68H583.51a3.55,3.55,0,0,0-3.55,3.55v25.53a3.55,3.55,0,0,1-3.55,3.55H550.88a3.55,3.55,0,0,1-3.55-3.55V477.28Zm50.82,70.48a25.4,25.4,0,0,0,25.31-25.51,25,25,0,0,0-25.31-25.51H583.51a3.55,3.55,0,0,0-3.55,3.55v43.92a3.55,3.55,0,0,0,3.55,3.55h14.64Z" transform="translate(-547.33 -464.31)" fill="#333"/><path d="M811.29,599.69V477.26a13,13,0,0,1,12.95-12.95h41.63c29.27,0,46.27,17.2,46.27,42.32,0,8.15-4.44,17-11.42,23a3.75,3.75,0,0,0,.5,6c8.12,5.24,16.46,16.84,16.46,31.89,0,27.68-17.6,45.08-47.46,45.08h-46A12.92,12.92,0,0,1,811.29,599.69Zm52.2-107.11H847.67a3.75,3.75,0,0,0-3.75,3.75v23.54a3.75,3.75,0,0,0,3.75,3.75h15.82c6.92,0,16-3.76,16-15.23C879.51,497.33,871,492.59,863.49,492.59ZM843.91,552.1v28.09a3.75,3.75,0,0,0,3.75,3.75H862.9c11.67,0,22.15-3.16,22.15-17.8,0-13.45-13.64-17.8-22.15-17.8H847.67A3.75,3.75,0,0,0,843.91,552.1Z" transform="translate(-547.33 -464.31)" fill="#333"/><path d="M964.22,474.24V602.69a9.93,9.93,0,0,1-9.93,9.93H941.52a9.93,9.93,0,0,1-9.93-9.93V474.24a9.93,9.93,0,0,1,9.93-9.93H954.3A9.93,9.93,0,0,1,964.22,474.24Z" transform="translate(-547.33 -464.31)" fill="#333"/><path d="M719.15,464.41H681.24a9,9,0,0,0-9,9v8.79c0,11.94,11.5,21.35,19,26.05,11.76,7.37,31,6.88,43.23,14.75s12.4,18.69,12.4,18.69,10.82,5.51,12.59,14-7.08,10.62-7.08,10.62,1-2.56-3.94-6.1c-13-7.67-33.65-9.64-51.35-.79-8,4-19,13.88-23.43,22.07a12.41,12.41,0,0,0-1.42,5.87v16.46a9,9,0,0,0,9,9h37.91c45.48,0,77.51-29.46,77.51-74.15C796.67,492.29,763.25,464.41,719.15,464.41Z" transform="translate(-547.33 -464.31)" fill="url(#Dégradé_sans_nom_9)"/><path d="M730,532.8s5.12,5.31,7.67,4.92S732.56,532.8,730,532.8Z" transform="translate(-547.33 -464.31)" fill="url(#Dégradé_sans_nom_9-2)"/><path d="M1235,538.56c0,44.69-32,74.15-77.51,74.15H1120.6a10,10,0,0,1-10-10V474.39a10,10,0,0,1,10-10h36.88C1201.58,464.41,1235,492.29,1235,538.56Zm-91.95-39V577.4a3.09,3.09,0,0,0,3.09,3.09h13c29.28,0,50.62-28.65,41.23-56.38-5.6-16.55-20.49-27.66-37.58-27.66h-16.69A3.09,3.09,0,0,0,1143,499.53Z" transform="translate(-547.33 -464.31)" fill="#333"/><path d="M985.33,477.28a12.77,12.77,0,0,1,12.77-12.77h38.84c31.84,0,57.15,23.73,57.15,56.75a59.07,59.07,0,0,1-21.85,46.17,3.53,3.53,0,0,0-.83,4.58c3.08,5.13,8.28,13.94,21.34,35.2a3.55,3.55,0,0,1-3,5.4h-28.65a3.55,3.55,0,0,1-3-1.68L1040,581.67a3.55,3.55,0,0,0-3-1.68h-15.44a3.55,3.55,0,0,0-3.55,3.55v25.53a3.55,3.55,0,0,1-3.55,3.55H988.88a3.55,3.55,0,0,1-3.55-3.55V477.28Zm50.82,70.48a25.4,25.4,0,0,0,25.31-25.51,25,25,0,0,0-25.31-25.51h-14.64a3.55,3.55,0,0,0-3.55,3.55v43.92a3.55,3.55,0,0,0,3.55,3.55h14.64Z" transform="translate(-547.33 -464.31)" fill="#333"/></svg>